<?xml version="1.0" encoding="iso-8859-1"?>
<!-- Generator: Adobe Illustrator 18.1.1, SVG Export Plug-In . SVG Version: 6.00 Build 0)  -->
<svg xmlns="http://www.w3.org/2000/svg" xmlns:xlink="http://www.w3.org/1999/xlink" version="1.1" id="Capa_1" x="0px" y="0px" viewBox="0 0 59.744 59.744" style="enable-background:new 0 0 59.744 59.744;" xml:space="preserve" width="512px" height="512px">
<g>
	<g>
		<path d="M46.004,30.933c-0.282-8.027-2.655-15.81-7.454-22.305c-0.431-0.582-0.922-1.097-1.457-1.538    c-1.639-2.535-3.711-4.756-6.404-6.201c-4.004-2.148-8.461-0.265-9.521,4.164c-0.992,4.148-0.242,9.245-0.292,13.461    c-0.031,2.771-0.063,5.544-0.094,8.315c2.654-0.663,5.47-0.953,8.446-0.839c0.032-2.803,0.063-5.604,0.096-8.405    c1.991,3.298,3.297,6.831,3.796,10.661c-7.401-1.306-14.844-0.396-21.176,4.173c-3.494,2.52-0.13,8.377,3.404,5.827    c5.907-4.263,12.453-4.572,19.334-2.754c0.361,0.096,0.697,0.118,1.021,0.11C39.425,38.455,46.216,36.929,46.004,30.933z" fill="#006DF0"/>
		<path d="M20.661,37.561c-0.069,6.033-0.137,12.069-0.207,18.104c-0.061,5.441,8.375,5.438,8.436,0    l-0.151-19.579C25.809,35.991,23.14,36.486,20.661,37.561z" fill="#006DF0"/>
		<path d="M42.529,38.091c-3.729,0-6.749,3.022-6.749,6.747c0,3.728,3.021,6.75,6.749,6.75    c3.725,0,6.745-3.022,6.745-6.75C49.274,41.113,46.254,38.091,42.529,38.091z" fill="#006DF0"/>
	</g>
</g>
<g>
</g>
<g>
</g>
<g>
</g>
<g>
</g>
<g>
</g>
<g>
</g>
<g>
</g>
<g>
</g>
<g>
</g>
<g>
</g>
<g>
</g>
<g>
</g>
<g>
</g>
<g>
</g>
<g>
</g>
</svg>
